<svg width="19" height="19" viewBox="0 0 19 19" fill="none" xmlns="http://www.w3.org/2000/svg">
<g clip-path="url(#clip0_632_55)">
<path d="M12.9391 19C16.2523 19 18.9426 16.3009 18.9602 13.0053L18.9956 8.15485L18.9382 7.88979L18.7791 7.55848L18.5096 7.35085C18.1607 7.07696 16.3892 7.36852 15.9121 6.9356C15.572 6.62637 15.5189 6.06975 15.4173 5.30993C15.2274 3.84329 15.1081 3.76819 14.8784 3.26901C14.0523 1.51081 11.7861 0.181121 10.2311 0H6.02116C2.70798 0 0 2.70356 0 6.00349V13.0053C0 16.3009 2.70798 19 6.02116 19H12.9391ZM6.10067 4.90351H9.44036C10.0765 4.90351 10.5934 5.42037 10.5934 6.05208C10.5934 6.67938 10.0765 7.20065 9.44036 7.20065H6.10067C5.46454 7.20065 4.94769 6.67938 4.94769 6.05208C4.94769 5.42037 5.46013 4.90351 6.10067 4.90351ZM4.94769 12.917C4.94769 12.2897 5.46454 11.7728 6.10067 11.7728H12.8861C13.5178 11.7728 14.0346 12.2853 14.0346 12.917C14.0346 13.5355 13.5222 14.0611 12.8861 14.0611H6.10067C5.46013 14.0611 4.94769 13.5399 4.94769 12.917Z" fill="#EB3019"/>
</g>
<defs>
<clipPath id="clip0_632_55">
<rect width="19" height="19" fill="white"/>
</clipPath>
</defs>
</svg>
