<svg width="22" height="22" viewBox="0 0 22 22" fill="none" xmlns="http://www.w3.org/2000/svg">
<path d="M16.2974 13.5025C16.3006 13.7147 16.2615 13.9254 16.1824 14.1224C16.1033 14.3193 15.9857 14.4985 15.8366 14.6496C15.6875 14.8006 15.5098 14.9204 15.3139 15.0021C15.118 15.0837 14.9078 15.1255 14.6955 15.125H6.64148C6.24187 15.1239 5.85673 14.9754 5.55986 14.7079C5.26298 14.4404 5.07527 14.0727 5.03268 13.6754C4.99009 13.2781 5.09563 12.879 5.32907 12.5547C5.56251 12.2303 5.90743 12.0036 6.29773 11.9178C6.32654 11.6001 6.44719 11.2977 6.64496 11.0475C6.84273 10.7972 7.10907 10.6099 7.41148 10.5084C7.63841 10.4313 7.87976 10.4061 8.11773 10.4347C8.3557 10.4632 8.58423 10.5448 8.78648 10.6734C8.96154 10.0706 9.32848 9.5414 9.83161 9.16606C10.3347 8.79073 10.9466 8.58979 11.5743 8.59375C12.0509 8.5894 12.5211 8.70484 12.9415 8.92947C13.3619 9.1541 13.7192 9.48073 13.9805 9.87937C14.3845 10.4695 14.5559 11.1882 14.4618 11.8972C14.6908 11.8657 14.9239 11.8837 15.1453 11.9501C15.3667 12.0164 15.5714 12.1294 15.7454 12.2816C15.9194 12.4338 16.0587 12.6215 16.1539 12.8321C16.2492 13.0427 16.2981 13.2713 16.2974 13.5025Z" fill="#EB3019"/>
<path d="M6.875 16.1562V16.5C6.875 16.5912 6.91122 16.6786 6.97568 16.7431C7.04015 16.8075 7.12758 16.8438 7.21875 16.8438C7.30992 16.8438 7.39735 16.8075 7.46182 16.7431C7.52628 16.6786 7.5625 16.5912 7.5625 16.5V16.1562C7.5625 16.0651 7.52628 15.9776 7.46182 15.9132C7.39735 15.8487 7.30992 15.8125 7.21875 15.8125C7.12758 15.8125 7.04015 15.8487 6.97568 15.9132C6.91122 15.9776 6.875 16.0651 6.875 16.1562Z" fill="#EB3019"/>
<path d="M14.4375 15.8125C14.3463 15.8125 14.2589 15.8487 14.1944 15.9132C14.13 15.9776 14.0938 16.0651 14.0938 16.1562V16.5C14.0938 16.5912 14.13 16.6786 14.1944 16.7431C14.2589 16.8075 14.3463 16.8438 14.4375 16.8438C14.5287 16.8438 14.6161 16.8075 14.6806 16.7431C14.745 16.6786 14.7812 16.5912 14.7812 16.5V16.1562C14.7812 16.0651 14.745 15.9776 14.6806 15.9132C14.6161 15.8487 14.5287 15.8125 14.4375 15.8125Z" fill="#EB3019"/>
<path d="M10.3125 16.1562V16.5C10.3125 16.5912 10.3487 16.6786 10.4132 16.7431C10.4776 16.8075 10.5651 16.8438 10.6562 16.8438C10.7474 16.8438 10.8349 16.8075 10.8993 16.7431C10.9638 16.6786 11 16.5912 11 16.5V16.1562C11 16.0651 10.9638 15.9776 10.8993 15.9132C10.8349 15.8487 10.7474 15.8125 10.6562 15.8125C10.5651 15.8125 10.4776 15.8487 10.4132 15.9132C10.3487 15.9776 10.3125 16.0651 10.3125 16.1562Z" fill="#EB3019"/>
<path d="M8.59375 16.1562V17.1875C8.59375 17.2787 8.62997 17.3661 8.69443 17.4306C8.7589 17.495 8.84633 17.5312 8.9375 17.5312C9.02867 17.5312 9.1161 17.495 9.18057 17.4306C9.24503 17.3661 9.28125 17.2787 9.28125 17.1875V16.1562C9.28125 16.0651 9.24503 15.9776 9.18057 15.9132C9.1161 15.8487 9.02867 15.8125 8.9375 15.8125C8.84633 15.8125 8.7589 15.8487 8.69443 15.9132C8.62997 15.9776 8.59375 16.0651 8.59375 16.1562Z" fill="#EB3019"/>
<path d="M12.375 16.1562V17.1875C12.375 17.2787 12.4112 17.3661 12.4757 17.4306C12.5401 17.495 12.6276 17.5312 12.7188 17.5312C12.8099 17.5312 12.8974 17.495 12.9618 17.4306C13.0263 17.3661 13.0625 17.2787 13.0625 17.1875V16.1562C13.0625 16.0651 13.0263 15.9776 12.9618 15.9132C12.8974 15.8487 12.8099 15.8125 12.7188 15.8125C12.6276 15.8125 12.5401 15.8487 12.4757 15.9132C12.4112 15.9776 12.375 16.0651 12.375 16.1562Z" fill="#EB3019"/>
<path d="M18.5625 2.0625H17.5312V1.89062C17.5312 1.57154 17.4045 1.26552 17.1789 1.03989C16.9532 0.814257 16.6472 0.6875 16.3281 0.6875C16.009 0.6875 15.703 0.814257 15.4774 1.03989C15.2518 1.26552 15.125 1.57154 15.125 1.89062V2.0625H12.2031V1.89062C12.2031 1.57154 12.0764 1.26552 11.8507 1.03989C11.6251 0.814257 11.3191 0.6875 11 0.6875C10.6809 0.6875 10.3749 0.814257 10.1493 1.03989C9.92363 1.26552 9.79688 1.57154 9.79688 1.89062V2.0625H6.875V1.89062C6.875 1.57154 6.74824 1.26552 6.52261 1.03989C6.29698 0.814257 5.99096 0.6875 5.67188 0.6875C5.35279 0.6875 5.04677 0.814257 4.82114 1.03989C4.59551 1.26552 4.46875 1.57154 4.46875 1.89062V2.0625H3.4375C2.98166 2.0625 2.54449 2.24358 2.22216 2.56591C1.89983 2.88824 1.71875 3.32541 1.71875 3.78125V19.5938C1.71875 20.0496 1.89983 20.4868 2.22216 20.8091C2.54449 21.1314 2.98166 21.3125 3.4375 21.3125H18.5625C19.0183 21.3125 19.4555 21.1314 19.7778 20.8091C20.1002 20.4868 20.2812 20.0496 20.2812 19.5938V3.78125C20.2812 3.32541 20.1002 2.88824 19.7778 2.56591C19.4555 2.24358 19.0183 2.0625 18.5625 2.0625ZM15.8125 1.89062C15.8125 1.75387 15.8668 1.62272 15.9635 1.52602C16.0602 1.42932 16.1914 1.375 16.3281 1.375C16.4649 1.375 16.596 1.42932 16.6927 1.52602C16.7894 1.62272 16.8438 1.75387 16.8438 1.89062V3.26562C16.8438 3.40238 16.7894 3.53353 16.6927 3.63023C16.596 3.72693 16.4649 3.78125 16.3281 3.78125C16.1914 3.78125 16.0602 3.72693 15.9635 3.63023C15.8668 3.53353 15.8125 3.40238 15.8125 3.26562V1.89062ZM10.4844 1.89062C10.4844 1.75387 10.5387 1.62272 10.6354 1.52602C10.7321 1.42932 10.8632 1.375 11 1.375C11.1368 1.375 11.2679 1.42932 11.3646 1.52602C11.4613 1.62272 11.5156 1.75387 11.5156 1.89062V3.26562C11.5156 3.40238 11.4613 3.53353 11.3646 3.63023C11.2679 3.72693 11.1368 3.78125 11 3.78125C10.8632 3.78125 10.7321 3.72693 10.6354 3.63023C10.5387 3.53353 10.4844 3.40238 10.4844 3.26562V1.89062ZM5.15625 1.89062C5.15625 1.75387 5.21057 1.62272 5.30727 1.52602C5.40397 1.42932 5.53512 1.375 5.67188 1.375C5.80863 1.375 5.93978 1.42932 6.03648 1.52602C6.13317 1.62272 6.1875 1.75387 6.1875 1.89062V3.26562C6.1875 3.40238 6.13317 3.53353 6.03648 3.63023C5.93978 3.72693 5.80863 3.78125 5.67188 3.78125C5.53512 3.78125 5.40397 3.72693 5.30727 3.63023C5.21057 3.53353 5.15625 3.40238 5.15625 3.26562V1.89062ZM16.5 18.7653V17.1875C16.5 16.914 16.6087 16.6517 16.802 16.4583C16.9954 16.2649 17.2577 16.1562 17.5312 16.1562H19.1091L16.5 18.7653ZM19.5938 15.125C19.5938 15.2162 19.5575 15.3036 19.4931 15.3681C19.4286 15.4325 19.3412 15.4688 19.25 15.4688H17.5312C17.0754 15.4688 16.6382 15.6498 16.3159 15.9722C15.9936 16.2945 15.8125 16.7317 15.8125 17.1875V18.9062C15.8125 18.9974 15.7763 19.0849 15.7118 19.1493C15.6474 19.2138 15.5599 19.25 15.4688 19.25L3.4375 19.2294C3.164 19.2294 2.90169 19.1207 2.7083 18.9273C2.5149 18.7339 2.40625 18.4716 2.40625 18.1981V6.875H19.5938V15.125Z" fill="#EB3019"/>
</svg>
