<svg width="22" height="10" viewBox="0 0 22 20" fill="none" xmlns="http://www.w3.org/2000/svg">
<path d="M20.625 8.38093H9.62534C8.86481 8.38093 8.25037 9.00513 8.25037 9.77775C8.25037 10.5504 8.8661 11.1746 9.62534 11.1746H20.625C21.3843 11.1746 22 10.5491 22 9.77775C22 9.00644 21.3856 8.38093 20.625 8.38093ZM9.62534 4.19044H20.625C21.3843 4.19044 22 3.56492 22 2.79361C22 2.0223 21.3843 1.39678 20.625 1.39678H9.62534C8.86481 1.39678 8.25037 2.0223 8.25037 2.79361C8.25037 3.56492 8.86481 4.19044 9.62534 4.19044ZM20.625 15.3651H9.62534C8.8661 15.3651 8.25037 15.9906 8.25037 16.7619C8.25037 17.5332 8.8661 18.1587 9.62534 18.1587H20.625C21.3843 18.1587 22 17.5332 22 16.7619C22 15.9906 21.3856 15.3651 20.625 15.3651ZM1.7193 8.38093H5.15671C5.72818 8.38093 6.18793 7.91386 6.18793 7.29402C6.18793 6.67417 5.72603 6.2464 5.15671 6.2464H4.46923V1.04714C4.46923 0.672001 4.27184 0.325587 3.95104 0.138761C3.63136 -0.0476283 3.2352 -0.0458822 2.91853 0.141817L1.54357 0.956779C1.05202 1.2488 0.885303 1.89004 1.17276 2.38984C1.42412 2.83071 1.94746 3.01623 2.40679 2.84992V6.28568H1.7193C1.14998 6.28568 0.688082 6.75493 0.688082 7.3333C0.688082 7.91168 1.14998 8.38093 1.7193 8.38093ZM5.85708 17.4603H3.73276L5.29678 16.0425C6.58237 14.915 6.73792 12.9276 5.64263 11.612C5.09656 10.917 4.32744 10.5547 3.47625 10.4849C2.63322 10.4194 1.80223 10.6901 1.15729 11.2575L0.620193 11.7289C0.188799 12.1068 0.140245 12.7683 0.511614 13.207C0.884229 13.6461 1.53424 13.6932 1.96306 13.3168L2.50058 12.8458C2.72573 12.648 3.02049 12.5546 3.31525 12.5771C3.61284 12.601 3.88242 12.7401 4.07234 12.9686C4.44628 13.4173 4.39399 14.0712 3.94099 14.4684L0.344599 17.7278C0.0256078 18.017 -0.0843033 18.4769 0.0671574 18.8833C0.220552 19.2849 0.602576 19.5556 1.0301 19.5556H5.85966C6.42812 19.5556 6.88916 19.0863 6.88916 18.5472C6.8883 17.9317 6.42425 17.4603 5.85708 17.4603Z" fill="#38424B"/>
</svg>
