<svg width="51" height="43" viewBox="0 0 51 43" fill="none" xmlns="http://www.w3.org/2000/svg">
<g filter="url(#filter0_d_681_25)">
<path d="M37.9 14.625H13.1C11.395 14.625 10 15.9187 10 17.5C10 19.0813 11.395 20.375 13.1 20.375H37.9C39.605 20.375 41 19.0813 41 17.5C41 15.9187 39.605 14.625 37.9 14.625Z" fill="#996B13"/>
<path d="M13.1 11.75H31.7C33.405 11.75 34.8 10.4563 34.8 8.875C34.8 7.29375 33.405 6 31.7 6H13.1C11.395 6 10 7.29375 10 8.875C10 10.4563 11.395 11.75 13.1 11.75Z" fill="#996B13"/>
<path d="M31.7 23.25H13.1C11.395 23.25 10 24.5437 10 26.125C10 27.7063 11.395 29 13.1 29H31.7C33.405 29 34.8 27.7063 34.8 26.125C34.8 24.5437 33.405 23.25 31.7 23.25Z" fill="#996B13"/>
</g>
<defs>
<filter id="filter0_d_681_25" x="0" y="0" width="51" height="43" filterUnits="userSpaceOnUse" color-interpolation-filters="sRGB">
<feFlood flood-opacity="0" result="BackgroundImageFix"/>
<feColorMatrix in="SourceAlpha" type="matrix" values="0 0 0 0 0 0 0 0 0 0 0 0 0 0 0 0 0 0 127 0" result="hardAlpha"/>
<feOffset dy="4"/>
<feGaussianBlur stdDeviation="5"/>
<feComposite in2="hardAlpha" operator="out"/>
<feColorMatrix type="matrix" values="0 0 0 0 0 0 0 0 0 0 0 0 0 0 0 0 0 0 0.25 0"/>
<feBlend mode="normal" in2="BackgroundImageFix" result="effect1_dropShadow_681_25"/>
<feBlend mode="normal" in="SourceGraphic" in2="effect1_dropShadow_681_25" result="shape"/>
</filter>
</defs>
</svg>
