<svg width="20" height="20" viewBox="0 0 20 20" fill="none" xmlns="http://www.w3.org/2000/svg">
<g clip-path="url(#clip0_632_51)">
<path d="M15.9168 19.5833C13.9168 19.5833 12.3335 18 12.2502 16L6.16683 12.9167C5.50016 13.4167 4.8335 13.5833 4.00016 13.5833C2.00016 13.5833 0.333496 11.9167 0.333496 9.91667C0.333496 7.91667 2.00016 6.25 4.00016 6.25C4.75016 6.25 5.50016 6.5 6.16683 6.91667L12.2502 3.83333C12.2502 1.83333 13.9168 0.25 15.9168 0.25C17.9168 0.25 19.5835 1.91667 19.5835 3.91667C19.5835 5.91667 17.9168 7.58333 15.9168 7.58333C15.1668 7.58333 14.4168 7.33333 13.7502 6.91667L7.8335 10L13.8335 13C14.4168 12.5833 15.1668 12.3333 16.0002 12.3333C18.0002 12.3333 19.6668 14 19.6668 16C19.5835 17.9167 17.9168 19.5833 15.9168 19.5833Z" fill="#EB3019"/>
</g>
<defs>
<clipPath id="clip0_632_51">
<rect width="20" height="20" fill="white"/>
</clipPath>
</defs>
</svg>
