<svg width="21" height="21" viewBox="0 0 21 21" fill="none" xmlns="http://www.w3.org/2000/svg">
<g clip-path="url(#clip0_632_59)">
<path d="M18.375 2.10988e-07H2.625C2.45261 -9.75584e-05 2.2819 0.0337845 2.12261 0.0997092C1.96333 0.165634 1.8186 0.262308 1.6967 0.384205C1.57481 0.506101 1.47813 0.650829 1.41221 0.810113C1.34628 0.969397 1.3124 1.14011 1.3125 1.3125V19.6875C1.3124 19.8599 1.34628 20.0306 1.41221 20.1899C1.47813 20.3492 1.57481 20.4939 1.6967 20.6158C1.8186 20.7377 1.96333 20.8344 2.12261 20.9003C2.2819 20.9662 2.45261 21.0001 2.625 21H18.375C18.5474 21.0001 18.7181 20.9662 18.8774 20.9003C19.0367 20.8344 19.1814 20.7377 19.3033 20.6158C19.4252 20.4939 19.5219 20.3492 19.5878 20.1899C19.6537 20.0306 19.6876 19.8599 19.6875 19.6875V1.3125C19.6876 1.14011 19.6537 0.969397 19.5878 0.810113C19.5219 0.650829 19.4252 0.506101 19.3033 0.384205C19.1814 0.262308 19.0367 0.165634 18.8774 0.0997092C18.7181 0.0337845 18.5474 -9.75584e-05 18.375 2.10988e-07ZM17.0625 18.375H3.9375V2.625H17.0625V18.375Z" fill="#EB3019"/>
<path d="M7.875 7.875H13.125C13.4731 7.875 13.8069 7.73672 14.0531 7.49058C14.2992 7.24444 14.4375 6.9106 14.4375 6.5625C14.4375 6.2144 14.2992 5.88056 14.0531 5.63442C13.8069 5.38828 13.4731 5.25 13.125 5.25H7.875C7.5269 5.25 7.19306 5.38828 6.94692 5.63442C6.70078 5.88056 6.5625 6.2144 6.5625 6.5625C6.5625 6.9106 6.70078 7.24444 6.94692 7.49058C7.19306 7.73672 7.5269 7.875 7.875 7.875Z" fill="#EB3019"/>
<path d="M7.875 13.125H13.125C13.4731 13.125 13.8069 12.9867 14.0531 12.7406C14.2992 12.4944 14.4375 12.1606 14.4375 11.8125C14.4375 11.4644 14.2992 11.1306 14.0531 10.8844C13.8069 10.6383 13.4731 10.5 13.125 10.5H7.875C7.5269 10.5 7.19306 10.6383 6.94692 10.8844C6.70078 11.1306 6.5625 11.4644 6.5625 11.8125C6.5625 12.1606 6.70078 12.4944 6.94692 12.7406C7.19306 12.9867 7.5269 13.125 7.875 13.125Z" fill="#EB3019"/>
</g>
<defs>
<clipPath id="clip0_632_59">
<rect width="21" height="21" fill="white"/>
</clipPath>
</defs>
</svg>
